<?xml version="1.0" standalone="no"?>
<!DOCTYPE svg PUBLIC "-//W3C//DTD SVG 20010904//EN"
 "http://www.w3.org/TR/2001/REC-SVG-20010904/DTD/svg10.dtd">
<svg version="1.0" xmlns="http://www.w3.org/2000/svg"
 width="300.000000pt" height="300.000000pt" viewBox="0 0 300.000000 300.000000"
 preserveAspectRatio="xMidYMid meet">

<g transform="translate(0.000000,300.000000) scale(0.100000,-0.100000)"
fill="#000000" stroke="none">
<path d="M1325 2954 c-351 -53 -619 -186 -856 -423 -213 -215 -341 -451 -406
-752 -14 -65 -18 -129 -18 -279 0 -168 3 -210 23 -300 65 -290 192 -521 401
-731 203 -202 429 -330 700 -396 96 -23 127 -26 321 -27 238 -1 288 6 477 69
213 71 393 184 563 354 210 210 337 442 402 731 20 90 23 132 23 300 0 208
-10 279 -62 445 -117 373 -417 713 -774 878 -206 96 -343 127 -584 132 -99 2
-193 1 -210 -1z m450 -125 c245 -49 482 -175 663 -352 189 -185 307 -387 374
-645 30 -111 31 -128 32 -312 1 -155 -3 -212 -18 -279 -57 -263 -170 -480
-345 -664 -82 -86 -214 -193 -285 -231 l-35 -19 -28 34 c-96 117 -147 157
-313 247 -91 49 -166 95 -168 104 -2 10 11 19 40 27 116 35 254 137 348 258
25 32 26 33 72 22 58 -13 101 5 149 59 113 128 115 347 5 409 -17 9 -16 15 12
94 99 283 51 499 -133 595 -42 22 -58 37 -66 62 -12 37 -72 115 -127 168 -48
45 -198 118 -287 140 -103 25 -296 22 -400 -5 -97 -26 -225 -86 -298 -139
-240 -178 -317 -469 -221 -839 l24 -94 -34 -29 c-117 -103 -26 -390 124 -390
34 0 40 -4 60 -42 73 -141 177 -228 337 -282 l63 -21 -163 -85 c-168 -88 -231
-136 -304 -232 -20 -26 -41 -48 -46 -48 -22 0 -168 112 -247 190 -195 190
-320 417 -382 691 -33 150 -33 408 0 558 92 411 349 744 717 928 273 138 585
181 880 122z m-116 -349 c176 -42 306 -139 369 -271 24 -51 37 -68 57 -73 67
-17 138 -83 169 -158 20 -47 29 -155 17 -193 l-9 -30 -1 31 c-2 51 -38 156
-72 207 -36 54 -100 96 -159 104 -37 5 -40 8 -40 37 0 116 -151 254 -327 301
-224 60 -529 -2 -691 -140 -50 -43 -121 -133 -151 -192 -24 -48 -36 -57 -20
-16 60 160 195 287 379 361 136 55 330 68 479 32z m296 -651 c91 -95 116 -145
145 -287 17 -86 19 -112 10 -170 -28 -180 -92 -314 -205 -428 -120 -121 -236
-169 -435 -181 -80 -4 -120 -2 -167 10 -207 54 -341 201 -402 443 -18 69 -19
92 -11 162 28 248 109 342 295 342 58 0 92 -6 123 -20 47 -21 52 -17 21 17
-27 28 -23 30 101 37 52 3 131 14 175 26 89 22 211 78 240 110 10 11 21 20 25
20 4 0 42 -36 85 -81z m323 -455 c39 -112 -50 -294 -144 -294 -37 0 -41 8 -20
48 7 15 25 72 40 127 15 55 36 120 47 143 19 42 21 43 42 29 12 -8 28 -32 35
-53z m-1465 -16 c9 -29 23 -89 31 -133 8 -44 18 -88 21 -97 10 -25 -10 -23
-47 4 -48 33 -81 117 -76 189 4 55 29 105 48 94 3 -2 14 -28 23 -57z m787
-658 c0 -24 -30 -79 -51 -94 -14 -9 -43 -16 -70 -16 -60 0 -109 36 -109 80 l0
29 88 4 c48 1 99 4 115 5 15 1 27 -3 27 -8z m-262 -71 c-2 -6 -67 -44 -143
-85 -129 -68 -146 -80 -225 -164 -66 -69 -89 -87 -97 -79 -9 9 -5 22 20 53 71
90 114 124 268 204 151 80 184 93 177 71z"/>
<path d="M1735 1730 c-12 -4 -26 -15 -33 -23 -11 -13 -6 -15 46 -10 46 4 69 1
107 -16 26 -12 50 -19 53 -16 3 2 -11 20 -31 40 -30 30 -42 35 -78 34 -24 0
-53 -4 -64 -9z"/>
<path d="M1762 1494 c-26 -18 -58 -74 -42 -74 5 0 10 3 10 8 0 4 15 17 33 30
24 16 48 22 85 22 51 0 68 12 36 24 -30 11 -100 6 -122 -10z"/>
<path d="M1114 1475 c-17 -13 -14 -14 42 -15 48 0 69 -5 98 -25 46 -31 50 -9
5 29 -35 30 -112 36 -145 11z"/>
<path d="M1190 1267 c0 -105 57 -205 142 -248 79 -40 224 -42 298 -4 82 42
152 137 166 224 8 49 -7 59 -59 42 -104 -35 -283 -31 -439 9 -108 28 -108 28
-108 -23z m330 -50 c63 -1 141 1 172 6 l57 7 -10 -30 c-6 -16 -14 -30 -17 -30
-4 -1 -29 -7 -57 -15 -50 -14 -50 -14 -13 -14 46 -1 54 -12 25 -38 -65 -57
-147 -78 -244 -63 -60 10 -125 46 -143 80 -10 20 -9 20 46 14 42 -5 55 -4 50
4 -4 7 -14 12 -22 12 -8 0 -36 11 -63 25 -34 17 -50 31 -53 49 -3 14 -3 27 -1
29 2 2 38 -5 81 -15 50 -13 117 -20 192 -21z"/>
</g>
</svg>
